<svg xmlns="http://www.w3.org/2000/svg" width="1440" height="900"><rect width="1440" height="900" fill="#111827"/><rect x="24" y="24" width="1392" height="852" rx="18" fill="#182231"/><text x="64" y="78" fill="#fff" font-family="Arial" font-size="26" font-weight="700">波点音乐</text><text x="64" y="104" fill="#92a0b5" font-family="Arial" font-size="13">与频道里的朋友一起听</text><circle cx="1322" cy="77" r="18" fill="#b6d1db"/><text x="1350" y="83" fill="#dde6f1" font-family="Arial" font-size="14">小明</text><rect x="64" y="144" width="827" height="56" rx="10" fill="#253348"/><text x="92" y="179" fill="#8e9caf" font-family="Arial" font-size="16">搜索你想听的歌</text><rect x="800" y="153" width="72" height="38" rx="8" fill="#3e74f5"/><text x="818" y="177" fill="#fff" font-family="Arial" font-size="14">搜索</text><text x="64" y="258" fill="#fff" font-family="Arial" font-size="22" font-weight="700">搜索结果</text><rect x="64" y="286" width="827" height="98" rx="11" fill="#202d3e"/><rect x="84" y="306" width="58" height="58" rx="8" fill="#d45f72"/><text x="164" y="330" fill="#fff" font-family="Arial" font-size="17" font-weight="700">晴天</text><text x="164" y="354" fill="#9daabd" font-family="Arial" font-size="14">周杰伦</text><rect x="676" y="322" width="78" height="35" rx="7" fill="#3e74f5"/><text x="696" y="345" fill="#fff" font-family="Arial" font-size="14">播放</text><rect x="766" y="322" width="101" height="35" rx="7" fill="#2d3c51"/><text x="786" y="345" fill="#dfe8f4" font-family="Arial" font-size="14">加入队列</text><rect x="925" y="144" width="427" height="610" rx="14" fill="#101722" stroke="#344256"/><text x="957" y="188" fill="#fff" font-family="Arial" font-size="16" font-weight="700">正在播放</text><rect x="957" y="217" width="363" height="250" rx="11" fill="#8e466c"/><text x="957" y="508" fill="#fff" font-family="Arial" font-size="25" font-weight="700">晴天</text><text x="957" y="536" fill="#9daabd" font-family="Arial" font-size="14">周杰伦</text><rect x="957" y="563" width="363" height="5" rx="3" fill="#344256"/><rect x="957" y="563" width="138" height="5" rx="3" fill="#6e9cff"/><circle cx="1138" cy="637" r="24" fill="#2d3c51"/><path d="M1144 628 L1128 637 L1144 646Z" fill="#fff"/><circle cx="1200" cy="637" r="32" fill="#3e74f5"/><rect x="1190" y="625" width="7" height="24" rx="2" fill="#fff"/><rect x="1203" y="625" width="7" height="24" rx="2" fill="#fff"/><circle cx="1262" cy="637" r="24" fill="#2d3c51"/><path d="M1256 628 L1272 637 L1256 646Z" fill="#fff"/><line x1="957" y1="685" x2="1320" y2="685" stroke="#344256"/><text x="957" y="723" fill="#fff" font-family="Arial" font-size="16" font-weight="700">接下来播放</text><text x="957" y="755" fill="#c6d1df" font-family="Arial" font-size="14">01　稻香　·　周杰伦</text></svg>
