<svg xmlns="http://www.w3.org/2000/svg" width="1440" height="900" viewBox="0 0 1440 900">
<defs><linearGradient id="bg" x2="1" y2="1"><stop stop-color="#111827"/><stop offset="1" stop-color="#202b3d"/></linearGradient><linearGradient id="cover" x2="1" y2="1"><stop stop-color="#f5a75b"/><stop offset=".45" stop-color="#db5f62"/><stop offset="1" stop-color="#4c2e75"/></linearGradient></defs>
<rect width="1440" height="900" fill="url(#bg)"/><rect x="18" y="18" width="1404" height="864" rx="16" fill="#151d2a" stroke="#344256"/>
<rect x="18" y="18" width="224" height="864" rx="16" fill="#101722"/><text x="52" y="72" fill="#f5f7fb" font-family="Arial" font-size="23" font-weight="700">波点</text><text x="52" y="96" fill="#8290a4" font-family="Arial" font-size="13">MUSIC CONSOLE</text>
<rect x="39" y="132" width="182" height="46" rx="9" fill="#2d65e8"/><text x="76" y="161" fill="#fff" font-family="Arial" font-size="15" font-weight="700">音乐控制</text>
<text x="55" y="226" fill="#c1cad8" font-family="Arial" font-size="15">播放队列</text><text x="55" y="274" fill="#c1cad8" font-family="Arial" font-size="15">最近播放</text><line x1="39" y1="312" x2="221" y2="312" stroke="#263345"/><text x="55" y="358" fill="#8290a4" font-family="Arial" font-size="12">管理</text><text x="55" y="402" fill="#c1cad8" font-family="Arial" font-size="15">账号与权限</text><text x="55" y="450" fill="#c1cad8" font-family="Arial" font-size="15">TS3 连接</text><text x="55" y="498" fill="#c1cad8" font-family="Arial" font-size="15">系统设置</text>
<circle cx="61" cy="831" r="15" fill="#d7a7a9"/><text x="88" y="828" fill="#eef2f7" font-family="Arial" font-size="14">管理员</text><text x="88" y="850" fill="#8290a4" font-family="Arial" font-size="12">在线</text>
<text x="286" y="76" fill="#f5f7fb" font-family="Arial" font-size="28" font-weight="700">一起听，随时点。</text><text x="286" y="103" fill="#8e9caf" font-family="Arial" font-size="14">机器人已连接到 ts.example.com:9987</text><rect x="286" y="139" width="688" height="52" rx="10" fill="#202b3b" stroke="#34445a"/><text x="310" y="171" fill="#7f8da1" font-family="Arial" font-size="15">搜索歌名、歌手或专辑</text><rect x="887" y="147" width="78" height="36" rx="8" fill="#2d65e8"/><text x="908" y="171" fill="#fff" font-family="Arial" font-size="14" font-weight="700">搜索</text>
<text x="286" y="242" fill="#f3f6fa" font-family="Arial" font-size="17" font-weight="700">为你找到 10 首歌</text><text x="286" y="272" fill="#8290a4" font-family="Arial" font-size="13">从酷我音乐搜索</text>
<rect x="286" y="295" width="688" height="86" rx="10" fill="#202b3b"/><rect x="302" y="311" width="54" height="54" rx="7" fill="url(#cover)"/><text x="376" y="327" fill="#f5f7fb" font-family="Arial" font-size="16" font-weight="700">晴天</text><text x="376" y="351" fill="#8e9caf" font-family="Arial" font-size="13">周杰伦 · 叶惠美</text><rect x="798" y="321" width="62" height="34" rx="7" fill="#2d65e8"/><text x="814" y="343" fill="#fff" font-family="Arial" font-size="13">播放</text><rect x="870" y="321" width="82" height="34" rx="7" fill="#2c394c"/><text x="890" y="343" fill="#d6e0ef" font-family="Arial" font-size="13">加入队列</text>
<rect x="286" y="392" width="688" height="86" rx="10" fill="#1b2533"/><rect x="302" y="408" width="54" height="54" rx="7" fill="#3f6a99"/><text x="376" y="424" fill="#f5f7fb" font-family="Arial" font-size="16" font-weight="700">稻香</text><text x="376" y="448" fill="#8e9caf" font-family="Arial" font-size="13">周杰伦 · 魔杰座</text><rect x="798" y="418" width="62" height="34" rx="7" fill="#2d65e8"/><text x="814" y="440" fill="#fff" font-family="Arial" font-size="13">播放</text><rect x="870" y="418" width="82" height="34" rx="7" fill="#2c394c"/><text x="890" y="440" fill="#d6e0ef" font-family="Arial" font-size="13">加入队列</text>
<rect x="1001" y="52" width="395" height="780" rx="13" fill="#0f1621" stroke="#2e3b4d"/><text x="1032" y="94" fill="#f5f7fb" font-family="Arial" font-size="15" font-weight="700">正在播放</text><circle cx="1344" cy="88" r="5" fill="#42d392"/><rect x="1032" y="119" width="333" height="333" rx="11" fill="url(#cover)"/><text x="1032" y="493" fill="#f5f7fb" font-family="Arial" font-size="24" font-weight="700">晴天</text><text x="1032" y="521" fill="#9aa8ba" font-family="Arial" font-size="14">周杰伦</text><rect x="1032" y="551" width="333" height="5" rx="3" fill="#293648"/><rect x="1032" y="551" width="126" height="5" rx="3" fill="#4c82ff"/><text x="1032" y="584" fill="#8290a4" font-family="Arial" font-size="12">01:42</text><text x="1335" y="584" fill="#8290a4" font-family="Arial" font-size="12">04:29</text><text x="1110" y="643" fill="#f5f7fb" font-family="Arial" font-size="27">◀   ❚❚   ▶</text><line x1="1032" y1="683" x2="1365" y2="683" stroke="#263345"/><text x="1032" y="722" fill="#f5f7fb" font-family="Arial" font-size="16" font-weight="700">接下来播放</text><text x="1032" y="758" fill="#d8e0ea" font-family="Arial" font-size="14">01　稻香　·　周杰伦</text><text x="1032" y="792" fill="#8290a4" font-family="Arial" font-size="14">02　七里香　·　周杰伦</text>
<rect x="1100" y="605" width="200" height="58" rx="29" fill="#101722"/>
<circle cx="1142" cy="634" r="20" fill="#26364c"/><path d="M1147 626 L1134 634 L1147 642Z" fill="#e9eff8"/><path d="M1133 626 L1124 634 L1133 642Z" fill="#e9eff8"/>
<circle cx="1200" cy="634" r="29" fill="#4c82ff"/><rect x="1191" y="623" width="6" height="22" rx="2" fill="#fff"/><rect x="1203" y="623" width="6" height="22" rx="2" fill="#fff"/>
<circle cx="1258" cy="634" r="20" fill="#26364c"/><path d="M1253 626 L1266 634 L1253 642Z" fill="#e9eff8"/><path d="M1267 626 L1276 634 L1267 642Z" fill="#e9eff8"/>
<circle cx="1075" cy="634" r="16" fill="#202d3e"/><path d="M1067 634 L1073 634 L1079 628 L1079 640 L1073 634 L1067 634Z" fill="#9fafc2"/><rect x="1090" y="632" width="32" height="4" rx="2" fill="#536278"/><rect x="1090" y="632" width="20" height="4" rx="2" fill="#8caeff"/>
<circle cx="1320" cy="634" r="16" fill="#202d3e"/><path d="M1313 630 Q1320 624 1327 630 M1313 638 Q1320 644 1327 638" fill="none" stroke="#9fafc2" stroke-width="2"/>
</svg>
