<svg xmlns="http://www.w3.org/2000/svg" width="390" height="844"><rect width="390" height="844" fill="#111827"/><text x="24" y="54" fill="#fff" font-family="Arial" font-size="22" font-weight="700">波点音乐</text><circle cx="348" cy="46" r="14" fill="#b6d1db"/><rect x="20" y="82" width="350" height="48" rx="9" fill="#243247"/><text x="40" y="112" fill="#94a3b8" font-family="Arial" font-size="14">搜索歌曲</text><text x="20" y="178" fill="#fff" font-family="Arial" font-size="18" font-weight="700">最近播放</text><rect x="20" y="196" width="350" height="72" rx="10" fill="#202d3e"/><rect x="34" y="210" width="44" height="44" rx="6" fill="#d45f72"/><text x="94" y="229" fill="#fff" font-family="Arial" font-size="15" font-weight="700">晴天</text><text x="94" y="248" fill="#9daabd" font-family="Arial" font-size="12">周杰伦</text><text x="20" y="315" fill="#fff" font-family="Arial" font-size="18" font-weight="700">搜索结果</text><rect x="20" y="334" width="350" height="74" rx="10" fill="#202d3e"/><text x="36" y="364" fill="#fff" font-family="Arial" font-size="15">稻香</text><rect x="267" y="349" width="40" height="30" rx="6" fill="#3e74f5"/><path d="M282 357 L282 371 L294 364Z" fill="#fff"/><rect x="316" y="349" width="36" height="30" rx="6" fill="#2d3c51"/><text x="326" y="370" fill="#fff" font-family="Arial" font-size="17">+</text><rect x="0" y="617" width="390" height="227" fill="#101722"/><rect x="20" y="637" width="62" height="62" rx="8" fill="#8e466c"/><text x="98" y="660" fill="#fff" font-family="Arial" font-size="16" font-weight="700">晴天</text><text x="98" y="681" fill="#9daabd" font-family="Arial" font-size="12">周杰伦</text><rect x="20" y="719" width="350" height="4" rx="2" fill="#344256"/><rect x="20" y="719" width="126" height="4" rx="2" fill="#6e9cff"/><circle cx="132" cy="775" r="23" fill="#2d3c51"/><path d="M138 766 L121 775 L138 784Z" fill="#fff"/><circle cx="195" cy="775" r="30" fill="#3e74f5"/><rect x="186" y="763" width="7" height="24" rx="2" fill="#fff"/><rect x="199" y="763" width="7" height="24" rx="2" fill="#fff"/><circle cx="258" cy="775" r="23" fill="#2d3c51"/><path d="M252 766 L269 775 L252 784Z" fill="#fff"/></svg>
